<svg width="57" height="57" viewBox="0 0 57 57" fill="none" xmlns="http://www.w3.org/2000/svg">
<circle cx="28.5" cy="28.5" r="28.5" fill="#FF5068"/>
<path d="M38.8333 23L31.0833 14.75H20.75C20.0648 14.75 19.4078 15.0397 18.9233 15.5555C18.4388 16.0712 18.1667 16.7707 18.1667 17.5V39.5C18.1667 40.2293 18.4388 40.9288 18.9233 41.4445C19.4078 41.9603 20.0648 42.25 20.75 42.25H36.25C36.9351 42.25 37.5922 41.9603 38.0767 41.4445C38.5612 40.9288 38.8333 40.2293 38.8333 39.5V23ZM31.0833 14.75L31.0833 23H38.8333M33.6667 29.875H23.3333M33.6667 35.375H23.3333M25.9167 24.375H23.3333" stroke="white" stroke-width="3.5" stroke-linecap="round" stroke-linejoin="round"/>
</svg>
